<?xml version="1.0" encoding="utf-8"?>
<!-- Generator: Adobe Illustrator 24.1.1, SVG Export Plug-In . SVG Version: 6.00 Build 0)  -->
<svg version="1.1" id="Warstwa_1" xmlns="http://www.w3.org/2000/svg" xmlns:xlink="http://www.w3.org/1999/xlink" x="0px" y="0px"
	 viewBox="0 0 579.19 195.3" style="enable-background:new 0 0 579.19 195.3;" xml:space="preserve">
<style type="text/css">
	.st0{clip-path:url(#SVGID_3_);fill:url(#SVGID_4_);}
	.st1{clip-path:url(#SVGID_7_);fill:url(#SVGID_8_);}
	.st2{clip-path:url(#SVGID_7_);fill:url(#SVGID_9_);}
	.st3{clip-path:url(#SVGID_12_);fill:url(#SVGID_13_);}
	.st4{clip-path:url(#SVGID_16_);fill:url(#SVGID_17_);}
	.st5{clip-path:url(#SVGID_20_);fill:url(#SVGID_21_);}
	.st6{clip-path:url(#SVGID_24_);fill:url(#SVGID_25_);}
	.st7{fill:url(#SVGID_26_);}
	.st8{fill-rule:evenodd;clip-rule:evenodd;fill:url(#SVGID_27_);}
	.st9{fill:url(#SVGID_28_);}
	.st10{fill-rule:evenodd;clip-rule:evenodd;fill:url(#SVGID_29_);}
	.st11{fill-rule:evenodd;clip-rule:evenodd;fill:url(#SVGID_30_);}
	.st12{fill-rule:evenodd;clip-rule:evenodd;fill:url(#SVGID_31_);}
</style>
<g>
	<g>
		<defs>
			<path id="SVGID_1_" d="M291.12,94.94c-0.47-0.28-0.96-0.36-1.4-0.36H269.5c-0.31,0-0.63,0.04-0.96,0.15
				c-0.49,0.16-0.99,0.55-1.26,1.03c-0.27,0.48-0.35,0.97-0.35,1.42c0,0.3,0.04,0.62,0.14,0.94c0.15,0.48,0.5,0.99,0.99,1.28
				c0.48,0.3,0.99,0.38,1.44,0.38h17.44l-0.23,1.41c-1.01,6.07-3.77,10.96-8.4,14.91c-4.64,3.91-9.92,5.82-16.06,5.83
				c-3.45,0-6.61-0.61-9.52-1.81c-2.91-1.2-5.58-3-8.03-5.44c-2.45-2.45-4.26-5.12-5.47-8.03c-1.21-2.91-1.82-6.07-1.82-9.52
				c0-3.45,0.61-6.61,1.82-9.51c1.21-2.9,3.02-5.56,5.47-8l0,0c2.45-2.45,5.12-4.26,8.03-5.47c2.91-1.21,6.07-1.82,9.52-1.82
				c3.65,0,6.96,0.67,9.98,2c3.02,1.33,5.75,3.32,8.23,6.03l0.02,0.02l0.03,0.03c0.22,0.22,0.5,0.43,0.82,0.57
				c0.32,0.14,0.68,0.22,1.03,0.22c0.48,0.01,0.99-0.16,1.38-0.44l0.15-0.08l0.22-0.11l0.17-0.17c0.24-0.24,0.42-0.53,0.52-0.81
				c0.09-0.24,0.14-0.48,0.17-0.71h0c0-0.01,0-0.03,0-0.04c0-0.03,0.01-0.05,0.01-0.08h0c0.01-0.1,0.03-0.21,0.03-0.31
				c0.01-0.6-0.25-1.23-0.63-1.64l-0.01-0.01l-0.01-0.01c-2.96-3.2-6.31-5.63-10.01-7.24c-3.7-1.62-7.75-2.42-12.1-2.42
				c-4.12,0-7.98,0.73-11.54,2.2c-3.56,1.47-6.8,3.68-9.71,6.59c-2.91,2.91-5.12,6.15-6.59,9.7c-1.47,3.55-2.21,7.4-2.21,11.51
				c0,4.12,0.73,7.98,2.2,11.54c1.47,3.56,3.68,6.8,6.59,9.71c2.91,2.91,6.16,5.12,9.71,6.6c3.56,1.47,7.42,2.2,11.54,2.2
				c4.11,0,7.96-0.73,11.51-2.21c3.55-1.47,6.79-3.68,9.7-6.59l0,0c2.91-2.92,5.12-6.18,6.59-9.74c1.47-3.56,2.2-7.42,2.2-11.54
				c0-0.29-0.04-0.61-0.14-0.92C291.96,95.71,291.59,95.22,291.12,94.94z"/>
		</defs>
		<linearGradient id="SVGID_2_" gradientUnits="userSpaceOnUse" x1="232.1959" y1="97.1705" x2="292.2506" y2="97.1705">
			<stop  offset="0" style="stop-color:#2B3990"/>
			<stop  offset="0.1527" style="stop-color:#4A3783"/>
			<stop  offset="0.4694" style="stop-color:#76346A"/>
			<stop  offset="0.6465" style="stop-color:#993053"/>
			<stop  offset="0.8042" style="stop-color:#B32B3F"/>
			<stop  offset="0.9271" style="stop-color:#C32732"/>
			<stop  offset="1" style="stop-color:#C9262D"/>
		</linearGradient>
		<use xlink:href="#SVGID_1_"  style="overflow:visible;fill:url(#SVGID_2_);"/>
		<clipPath id="SVGID_3_">
			<use xlink:href="#SVGID_1_"  style="overflow:visible;"/>
		</clipPath>
		<linearGradient id="SVGID_4_" gradientUnits="userSpaceOnUse" x1="223.9791" y1="91.7622" x2="486.9791" y2="91.7622">
			<stop  offset="0" style="stop-color:#2B3990"/>
			<stop  offset="0.1527" style="stop-color:#4A3783"/>
			<stop  offset="0.4694" style="stop-color:#76346A"/>
			<stop  offset="0.6465" style="stop-color:#993053"/>
			<stop  offset="0.8042" style="stop-color:#B32B3F"/>
			<stop  offset="0.9271" style="stop-color:#C32732"/>
			<stop  offset="1" style="stop-color:#C9262D"/>
		</linearGradient>
		<rect x="223.98" y="10.26" class="st0" width="263" height="163"/>
	</g>
	<g>
		<defs>
			<path id="SVGID_5_" d="M320.5,84.6c-0.48-0.29-0.99-0.38-1.44-0.38h-2.4c-2.17,0-4.22,0.38-6.1,1.16
				c-1.88,0.78-3.59,1.94-5.09,3.46c-1.52,1.52-2.69,3.24-3.47,5.13c-0.78,1.89-1.18,3.95-1.19,6.13v0.01v24.52
				c0,0.3,0.03,0.61,0.14,0.92c0.14,0.47,0.5,0.98,0.97,1.26c0.47,0.29,0.97,0.38,1.42,0.38h0.12c0.3,0,0.62-0.04,0.94-0.14
				c0.48-0.15,0.99-0.52,1.26-1c0.28-0.48,0.36-0.97,0.36-1.42v-24.51c0.03-1.54,0.3-2.91,0.82-4.16c0.52-1.25,1.28-2.38,2.32-3.43
				c1.04-1.03,2.17-1.78,3.4-2.28c1.24-0.5,2.59-0.76,4.1-0.76h2.4c0.32,0,0.65-0.04,0.99-0.17c0.51-0.18,1-0.6,1.25-1.08
				c0.26-0.48,0.33-0.97,0.33-1.43c0-0.3-0.04-0.62-0.14-0.94C321.34,85.4,320.98,84.89,320.5,84.6z"/>
		</defs>
		<linearGradient id="SVGID_6_" gradientUnits="userSpaceOnUse" x1="300.8024" y1="105.7066" x2="321.6237" y2="105.7066">
			<stop  offset="0" style="stop-color:#2B3990"/>
			<stop  offset="0.1527" style="stop-color:#4A3783"/>
			<stop  offset="0.4694" style="stop-color:#76346A"/>
			<stop  offset="0.6465" style="stop-color:#993053"/>
			<stop  offset="0.8042" style="stop-color:#B32B3F"/>
			<stop  offset="0.9271" style="stop-color:#C32732"/>
			<stop  offset="1" style="stop-color:#C9262D"/>
		</linearGradient>
		<use xlink:href="#SVGID_5_"  style="overflow:visible;fill:url(#SVGID_6_);"/>
		<clipPath id="SVGID_7_">
			<use xlink:href="#SVGID_5_"  style="overflow:visible;"/>
		</clipPath>
		<linearGradient id="SVGID_8_" gradientUnits="userSpaceOnUse" x1="225.9791" y1="91.7622" x2="488.9791" y2="91.7622">
			<stop  offset="0" style="stop-color:#2B3990"/>
			<stop  offset="0.1527" style="stop-color:#4A3783"/>
			<stop  offset="0.4694" style="stop-color:#76346A"/>
			<stop  offset="0.6465" style="stop-color:#993053"/>
			<stop  offset="0.8042" style="stop-color:#B32B3F"/>
			<stop  offset="0.9271" style="stop-color:#C32732"/>
			<stop  offset="1" style="stop-color:#C9262D"/>
		</linearGradient>
		<rect x="225.98" y="10.26" class="st1" width="263" height="163"/>
		<linearGradient id="SVGID_9_" gradientUnits="userSpaceOnUse" x1="305.4557" y1="88.8375" x2="305.4616" y2="88.8375">
			<stop  offset="0" style="stop-color:#2B3990"/>
			<stop  offset="0.1527" style="stop-color:#4A3783"/>
			<stop  offset="0.4694" style="stop-color:#76346A"/>
			<stop  offset="0.6465" style="stop-color:#993053"/>
			<stop  offset="0.8042" style="stop-color:#B32B3F"/>
			<stop  offset="0.9271" style="stop-color:#C32732"/>
			<stop  offset="1" style="stop-color:#C9262D"/>
		</linearGradient>
		<polygon class="st2" points="305.46,88.84 305.46,88.84 305.46,88.84 		"/>
	</g>
	<g>
		<defs>
			<path id="SVGID_10_" d="M362.33,84.62c-0.48-0.26-0.97-0.33-1.43-0.33c-0.3,0-0.62,0.04-0.94,0.14c-0.48,0.15-0.98,0.52-1.26,1
				c-0.28,0.48-0.36,0.97-0.36,1.42v21.92c0,1.73-0.31,3.29-0.91,4.72c-0.6,1.44-1.51,2.76-2.75,3.99l0,0.01
				c-1.23,1.23-2.55,2.12-4,2.72c-1.45,0.6-3.02,0.9-4.76,0.9c-1.74,0-3.32-0.3-4.76-0.9c-1.44-0.6-2.77-1.49-4-2.72
				c-1.24-1.24-2.15-2.58-2.75-4.03c-0.6-1.45-0.91-3.03-0.91-4.77V86.86c0-0.31-0.04-0.64-0.16-0.97c-0.17-0.5-0.57-0.99-1.05-1.25
				c-0.48-0.27-0.97-0.34-1.43-0.34c-0.3,0-0.62,0.04-0.94,0.14c-0.48,0.15-0.98,0.52-1.26,1c-0.28,0.48-0.36,0.97-0.36,1.42v21.84
				c0,2.41,0.43,4.69,1.3,6.78c0.87,2.1,2.17,4.01,3.88,5.71c1.7,1.7,3.61,3.01,5.7,3.88c2.09,0.87,4.36,1.3,6.76,1.3
				c3.82,0.01,7.36-1.16,10.46-3.44l0,0c0,0,0,0,0,0c0,0,0.01-0.01,0.01-0.01v0c0.69-0.5,1.34-1.08,1.95-1.71v5.51
				c0,1.7-0.31,3.24-0.92,4.68c-0.61,1.44-1.53,2.78-2.79,4.04l0.01,0c-1.26,1.25-2.6,2.15-4.04,2.76c-1.44,0.6-2.99,0.91-4.68,0.91
				c-2.54,0-4.85-0.62-7.06-1.89c-2.2-1.27-3.81-2.92-4.95-5.04l0,0c-0.19-0.38-0.5-0.75-0.9-0.99c-0.42-0.26-0.9-0.36-1.32-0.36
				c-0.23,0-0.44,0.03-0.65,0.07l-0.09,0.02l-0.15,0.05l-0.1,0.02l-0.16,0.04l-0.15,0.07c-0.33,0.17-0.59,0.4-0.78,0.63
				c-0.2,0.24-0.34,0.49-0.46,0.75l-0.02,0.04l-0.01,0.04c-0.11,0.27-0.17,0.58-0.17,0.88c0,0.44,0.13,0.84,0.31,1.18l0,0
				c0.01,0.01,0.01,0.03,0.02,0.04c0,0,0,0,0,0.01l0,0c1.52,2.99,3.82,5.4,6.79,7.12l-0.01,0c2.96,1.74,6.29,2.61,9.87,2.61
				c2.34,0,4.58-0.44,6.65-1.33c2.08-0.89,3.99-2.22,5.72-3.96c1.73-1.73,3.07-3.65,3.96-5.72c0.89-2.08,1.33-4.31,1.33-6.65V86.86
				c0-0.31-0.04-0.65-0.17-0.99C363.23,85.36,362.81,84.87,362.33,84.62z"/>
		</defs>
		<linearGradient id="SVGID_11_" gradientUnits="userSpaceOnUse" x1="328.2838" y1="114.3413" x2="363.5768" y2="114.3413">
			<stop  offset="0" style="stop-color:#2B3990"/>
			<stop  offset="0.1527" style="stop-color:#4A3783"/>
			<stop  offset="0.4694" style="stop-color:#76346A"/>
			<stop  offset="0.6465" style="stop-color:#993053"/>
			<stop  offset="0.8042" style="stop-color:#B32B3F"/>
			<stop  offset="0.9271" style="stop-color:#C32732"/>
			<stop  offset="1" style="stop-color:#C9262D"/>
		</linearGradient>
		<use xlink:href="#SVGID_10_"  style="overflow:visible;fill:url(#SVGID_11_);"/>
		<clipPath id="SVGID_12_">
			<use xlink:href="#SVGID_10_"  style="overflow:visible;"/>
		</clipPath>
		<linearGradient id="SVGID_13_" gradientUnits="userSpaceOnUse" x1="227.9791" y1="91.7622" x2="490.9791" y2="91.7622">
			<stop  offset="0" style="stop-color:#2B3990"/>
			<stop  offset="0.1527" style="stop-color:#4A3783"/>
			<stop  offset="0.4694" style="stop-color:#76346A"/>
			<stop  offset="0.6465" style="stop-color:#993053"/>
			<stop  offset="0.8042" style="stop-color:#B32B3F"/>
			<stop  offset="0.9271" style="stop-color:#C32732"/>
			<stop  offset="1" style="stop-color:#C9262D"/>
		</linearGradient>
		<rect x="227.98" y="10.26" class="st3" width="263" height="163"/>
	</g>
	<g>
		<defs>
			<path id="SVGID_14_" d="M437.07,84.56c-0.49-0.27-0.99-0.34-1.45-0.35c-0.31,0-0.63,0.04-0.96,0.15c-0.49,0.15-1,0.53-1.28,1.01
				c-0.29,0.48-0.37,0.99-0.37,1.44v22.83c0,1.73-0.3,3.29-0.9,4.73c-0.6,1.44-1.49,2.76-2.72,3.99c-1.21,1.21-2.53,2.1-3.96,2.69
				c-1.43,0.59-2.99,0.89-4.72,0.89c-1.73,0-3.29-0.3-4.73-0.89c-1.44-0.59-2.76-1.48-3.99-2.69c-1.23-1.23-2.12-2.55-2.72-3.99
				c-0.6-1.44-0.9-3-0.9-4.73V86.82c0-0.31-0.04-0.63-0.15-0.96c-0.15-0.49-0.53-1-1.01-1.28c-0.48-0.29-0.99-0.37-1.44-0.37
				c-0.31,0-0.63,0.04-0.96,0.15c-0.49,0.15-1,0.53-1.28,1.01c-0.29,0.48-0.37,0.99-0.37,1.44v22.83c0,1.73-0.3,3.29-0.9,4.73
				c-0.6,1.44-1.49,2.76-2.72,3.99c-1.21,1.21-2.53,2.1-3.96,2.69c-1.43,0.59-2.99,0.89-4.72,0.89s-3.29-0.3-4.73-0.89
				c-1.44-0.59-2.76-1.48-3.99-2.69l0.01,0c-1.23-1.23-2.13-2.55-2.72-3.99c-0.6-1.44-0.9-3-0.9-4.73V86.82
				c0-0.31-0.04-0.63-0.15-0.96c-0.15-0.49-0.53-1-1.01-1.28c-0.48-0.29-0.99-0.37-1.44-0.37c-0.31,0-0.63,0.04-0.96,0.15
				c-0.49,0.15-1,0.53-1.28,1.01c-0.29,0.48-0.37,0.99-0.37,1.44v22.83c0,2.38,0.42,4.64,1.29,6.72c0.86,2.08,2.15,3.99,3.84,5.69
				l0.01,0.01l0,0c1.7,1.69,3.61,2.98,5.69,3.84c2.08,0.86,4.34,1.29,6.72,1.29c2.84,0,5.47-0.57,7.82-1.73
				c2.34-1.15,4.39-2.89,6.12-5.14l0,0c0-0.01,0.01-0.01,0.02-0.02c0,0,0-0.01,0.01-0.01l0,0c0.31-0.39,0.64-0.82,0.97-1.28
				c0.31,0.44,0.64,0.88,1,1.33l0,0c1.71,2.24,3.75,3.97,6.09,5.12c2.35,1.16,4.98,1.72,7.83,1.72c2.38,0,4.64-0.43,6.72-1.29
				c2.08-0.86,3.99-2.15,5.69-3.84l0,0c1.7-1.7,3-3.6,3.87-5.69c0.87-2.08,1.3-4.34,1.3-6.73V86.82c0-0.32-0.04-0.65-0.16-0.99
				C437.96,85.32,437.56,84.83,437.07,84.56z"/>
		</defs>
		<linearGradient id="SVGID_15_" gradientUnits="userSpaceOnUse" x1="373.3131" y1="105.7066" x2="438.2955" y2="105.7066">
			<stop  offset="0" style="stop-color:#2B3990"/>
			<stop  offset="0.1527" style="stop-color:#4A3783"/>
			<stop  offset="0.4694" style="stop-color:#76346A"/>
			<stop  offset="0.6465" style="stop-color:#993053"/>
			<stop  offset="0.8042" style="stop-color:#B32B3F"/>
			<stop  offset="0.9271" style="stop-color:#C32732"/>
			<stop  offset="1" style="stop-color:#C9262D"/>
		</linearGradient>
		<use xlink:href="#SVGID_14_"  style="overflow:visible;fill:url(#SVGID_15_);"/>
		<clipPath id="SVGID_16_">
			<use xlink:href="#SVGID_14_"  style="overflow:visible;"/>
		</clipPath>
		<linearGradient id="SVGID_17_" gradientUnits="userSpaceOnUse" x1="229.9791" y1="91.7622" x2="492.9791" y2="91.7622">
			<stop  offset="0" style="stop-color:#2B3990"/>
			<stop  offset="0.1527" style="stop-color:#4A3783"/>
			<stop  offset="0.4694" style="stop-color:#76346A"/>
			<stop  offset="0.6465" style="stop-color:#993053"/>
			<stop  offset="0.8042" style="stop-color:#B32B3F"/>
			<stop  offset="0.9271" style="stop-color:#C32732"/>
			<stop  offset="1" style="stop-color:#C9262D"/>
		</linearGradient>
		<rect x="229.98" y="10.26" class="st4" width="263" height="163"/>
	</g>
	<g>
		<defs>
			<path id="SVGID_18_" d="M453.23,84.57c-0.48-0.28-0.99-0.36-1.45-0.36c-0.31,0-0.63,0.04-0.96,0.15
				c-0.49,0.16-0.99,0.55-1.26,1.03c-0.28,0.48-0.35,0.97-0.35,1.42v37.81c0,0.3,0.04,0.62,0.14,0.94c0.15,0.48,0.52,0.98,1,1.26
				c0.47,0.28,0.97,0.36,1.42,0.36h0.12c0.3,0,0.62-0.04,0.94-0.15c0.49-0.16,0.98-0.54,1.24-1.02c0.27-0.47,0.35-0.96,0.35-1.4
				V86.82c0-0.31-0.04-0.64-0.15-0.97C454.11,85.35,453.71,84.85,453.23,84.57z"/>
		</defs>
		<linearGradient id="SVGID_19_" gradientUnits="userSpaceOnUse" x1="449.2135" y1="105.7066" x2="454.4205" y2="105.7066">
			<stop  offset="0" style="stop-color:#2B3990"/>
			<stop  offset="0.1527" style="stop-color:#4A3783"/>
			<stop  offset="0.4694" style="stop-color:#76346A"/>
			<stop  offset="0.6465" style="stop-color:#993053"/>
			<stop  offset="0.8042" style="stop-color:#B32B3F"/>
			<stop  offset="0.9271" style="stop-color:#C32732"/>
			<stop  offset="1" style="stop-color:#C9262D"/>
		</linearGradient>
		<use xlink:href="#SVGID_18_"  style="overflow:visible;fill:url(#SVGID_19_);"/>
		<clipPath id="SVGID_20_">
			<use xlink:href="#SVGID_18_"  style="overflow:visible;"/>
		</clipPath>
		<linearGradient id="SVGID_21_" gradientUnits="userSpaceOnUse" x1="231.9791" y1="91.7622" x2="494.9791" y2="91.7622">
			<stop  offset="0" style="stop-color:#2B3990"/>
			<stop  offset="0.1527" style="stop-color:#4A3783"/>
			<stop  offset="0.4694" style="stop-color:#76346A"/>
			<stop  offset="0.6465" style="stop-color:#993053"/>
			<stop  offset="0.8042" style="stop-color:#B32B3F"/>
			<stop  offset="0.9271" style="stop-color:#C32732"/>
			<stop  offset="1" style="stop-color:#C9262D"/>
		</linearGradient>
		<rect x="231.98" y="10.26" class="st5" width="263" height="163"/>
	</g>
	<g>
		<defs>
			<path id="SVGID_22_" d="M481.53,122.33c-0.48-0.3-0.99-0.38-1.44-0.38h-3.31c-0.79,0-1.47-0.13-2.09-0.39
				c-0.62-0.26-1.19-0.64-1.74-1.18l-0.01-0.01c-0.56-0.55-0.95-1.12-1.21-1.73c-0.26-0.62-0.39-1.28-0.39-2.05V89.5h8.75
				c0.31,0,0.65-0.04,0.99-0.17c0.51-0.18,1-0.6,1.25-1.08c0.26-0.48,0.33-0.97,0.33-1.43c0-0.3-0.04-0.62-0.14-0.94
				c-0.15-0.48-0.5-0.99-0.98-1.28c-0.48-0.29-0.99-0.38-1.44-0.38h-8.75V69.71c0-0.31-0.04-0.63-0.15-0.96
				c-0.16-0.49-0.55-0.99-1.03-1.26c-0.48-0.28-0.97-0.35-1.42-0.35c-0.3,0-0.62,0.04-0.94,0.14c-0.48,0.14-0.99,0.5-1.28,0.98
				c-0.3,0.48-0.38,0.99-0.38,1.44v46.88c0,1.44,0.26,2.81,0.79,4.08c0.53,1.26,1.32,2.41,2.34,3.41c1.02,1.02,2.17,1.81,3.44,2.33
				c1.27,0.53,2.64,0.79,4.08,0.79h3.31c0.31,0,0.64-0.04,0.97-0.16c0.5-0.17,0.99-0.57,1.25-1.05c0.27-0.48,0.34-0.97,0.34-1.43
				c0-0.3-0.04-0.62-0.14-0.94C482.37,123.13,482.01,122.62,481.53,122.33z"/>
		</defs>
		<linearGradient id="SVGID_23_" gradientUnits="userSpaceOnUse" x1="466.1276" y1="97.1705" x2="482.653" y2="97.1705">
			<stop  offset="0" style="stop-color:#2B3990"/>
			<stop  offset="0.1527" style="stop-color:#4A3783"/>
			<stop  offset="0.4694" style="stop-color:#76346A"/>
			<stop  offset="0.6465" style="stop-color:#993053"/>
			<stop  offset="0.8042" style="stop-color:#B32B3F"/>
			<stop  offset="0.9271" style="stop-color:#C32732"/>
			<stop  offset="1" style="stop-color:#C9262D"/>
		</linearGradient>
		<use xlink:href="#SVGID_22_"  style="overflow:visible;fill:url(#SVGID_23_);"/>
		<clipPath id="SVGID_24_">
			<use xlink:href="#SVGID_22_"  style="overflow:visible;"/>
		</clipPath>
		<linearGradient id="SVGID_25_" gradientUnits="userSpaceOnUse" x1="233.9791" y1="91.7622" x2="496.9791" y2="91.7622">
			<stop  offset="0" style="stop-color:#2B3990"/>
			<stop  offset="0.1527" style="stop-color:#4A3783"/>
			<stop  offset="0.4694" style="stop-color:#76346A"/>
			<stop  offset="0.6465" style="stop-color:#993053"/>
			<stop  offset="0.8042" style="stop-color:#B32B3F"/>
			<stop  offset="0.9271" style="stop-color:#C32732"/>
			<stop  offset="1" style="stop-color:#C9262D"/>
		</linearGradient>
		<rect x="233.98" y="10.26" class="st6" width="263" height="163"/>
	</g>
	<linearGradient id="SVGID_26_" gradientUnits="userSpaceOnUse" x1="467.2487" y1="124.0796" x2="467.2565" y2="124.0796">
		<stop  offset="0" style="stop-color:#2B3990"/>
		<stop  offset="0.1527" style="stop-color:#4A3783"/>
		<stop  offset="0.4694" style="stop-color:#76346A"/>
		<stop  offset="0.6465" style="stop-color:#993053"/>
		<stop  offset="0.8042" style="stop-color:#B32B3F"/>
		<stop  offset="0.9271" style="stop-color:#C32732"/>
		<stop  offset="1" style="stop-color:#C9262D"/>
	</linearGradient>
	<polygon class="st7" points="467.26,124.08 467.25,124.08 467.25,124.08 	"/>
	<linearGradient id="SVGID_27_" gradientUnits="userSpaceOnUse" x1="90.4308" y1="68.2322" x2="165.3122" y2="68.2322">
		<stop  offset="0" style="stop-color:#C9262D"/>
		<stop  offset="0.0933" style="stop-color:#C32732"/>
		<stop  offset="0.2507" style="stop-color:#B32B3F"/>
		<stop  offset="0.4528" style="stop-color:#993053"/>
		<stop  offset="0.6919" style="stop-color:#74346B"/>
		<stop  offset="0.9593" style="stop-color:#38388B"/>
		<stop  offset="1" style="stop-color:#2B3990"/>
	</linearGradient>
	<path class="st8" d="M107.01,51.79c-2.01,1.83-3.59,4-4.5,6.6c-3.93,11.25-7.83,22.5-11.72,33.76c-0.24,0.7-0.4,1.47-0.35,2.2
		c0.08,1.17,0.85,1.94,2,2.11c1.61,0.23,2.51-0.67,3.01-2.1c2.74-7.93,5.49-15.86,8.23-23.79c1.15-3.32,2.26-6.67,3.46-9.97
		c1.57-4.3,4.66-6.91,9.13-7.78c13.02-2.51,26.05-5,39.08-7.44c4.28-0.8,5.58,0.87,4.15,4.95c-3.94,11.32-7.84,22.66-11.75,33.99
		c-0.07,0.21-0.15,0.43-0.22,0.64c-0.53,1.64-0.67,3.24,1.37,3.87c1.95,0.61,2.92-0.68,3.49-2.3c1.13-3.18,2.2-6.37,3.31-9.56
		c2.98-8.64,5.97-17.28,8.97-25.91c0.77-2.21,0.95-4.38-0.08-6.56c-1.65-3.5-4.93-5.12-9.19-4.32c-10.53,1.98-21.04,4.02-31.56,6.03
		c-2.94,0.56-5.88,1.15-8.84,1.64C111.94,48.37,109.41,49.89,107.01,51.79z"/>
	<linearGradient id="SVGID_28_" gradientUnits="userSpaceOnUse" x1="90.6282" y1="101.7303" x2="205.0153" y2="101.7303">
		<stop  offset="0" style="stop-color:#C9262D"/>
		<stop  offset="0.0729" style="stop-color:#C32732"/>
		<stop  offset="0.1958" style="stop-color:#B32B3F"/>
		<stop  offset="0.3535" style="stop-color:#993053"/>
		<stop  offset="0.5306" style="stop-color:#76346A"/>
		<stop  offset="0.8473" style="stop-color:#4A3783"/>
		<stop  offset="1" style="stop-color:#2B3990"/>
	</linearGradient>
	<path class="st9" d="M200.95,78.01c-7.68-8.95-15.38-17.87-23.06-26.82c-0.14-0.16-0.27-0.32-0.41-0.48
		c-1.18-1.37-2.43-2.36-4.21-1.02c-0.28,0.21-0.48,0.46-0.64,0.72c-0.03,0.05-0.07,0.09-0.09,0.14c-0.02,0.05-0.03,0.09-0.05,0.14
		c-0.55,1.58-1.09,3.17-1.64,4.75c0.01-0.02,0.01-0.05,0.02-0.07c-1.62,4.64-3.22,9.29-4.82,13.94c-0.01-0.02-0.02-0.03-0.03-0.04
		c-3.02,8.66-6.03,17.32-9.02,25.99c-0.16,0.45-0.27,0.93-0.32,1.41c-0.07,0.32-0.09,0.65-0.02,0.96c0.01,0.04,0.02,0.07,0.03,0.11
		c0.1,0.55,0.36,1,0.76,1.31l21.42,24.21c0.14,0.12,0.29,0.24,0.47,0.33c0.46,0.27,1.09,0.39,1.63,0.27
		c0.55-0.11,0.98-0.39,1.33-0.7c0.23-0.21,0.45-0.45,0.63-0.75c0.07-0.12,0.13-0.25,0.18-0.38c0.2-0.27,0.35-0.57,0.44-0.86
		l10.31-30.8c0.04-0.18,0.06-0.37,0.06-0.57c0-0.15-0.02-0.32-0.06-0.48c0-0.02,0-0.05-0.01-0.07c-0.11-0.54-0.38-0.97-0.68-1.31
		l-0.78-0.88l-13.74-15.53c-0.01-0.01-0.02-0.02-0.03-0.02l0,0c-0.48-0.28-1.12-0.4-1.7-0.28l-0.01,0l-0.01,0l-0.01,0
		c-0.57,0.12-1.02,0.41-1.38,0.72l0.08,0.09l-0.08-0.09c-0.24,0.21-0.47,0.46-0.65,0.78c0,0,0,0,0,0c-0.16,0.26-0.27,0.59-0.32,0.92
		l-6.2,18.51c-0.03,0.15-0.05,0.31-0.05,0.47c-0.01,0.53,0.21,1.13,0.58,1.55c0.38,0.42,0.83,0.65,1.27,0.8
		c0.3,0.1,0.61,0.17,0.96,0.17c0.51,0.02,1.12-0.17,1.55-0.54c0.44-0.37,0.69-0.83,0.84-1.27l4.77-14.25l8.16,9.23l1.84,2.08
		l-8.62,25.76l-17.59-19.88c0.51-1.47,1.02-2.95,1.53-4.42c0.13-0.25,0.24-0.52,0.34-0.8c0.87-2.46,1.72-4.93,2.57-7.4
		c0.87-2.5,1.73-5.01,2.59-7.51c1.7-4.91,3.39-9.81,5.09-14.72c0.55-1.59,1.1-3.18,1.65-4.77c0.04,0.04,0.07,0.08,0.11,0.12
		c6.77,7.7,13.36,15.55,20.09,23.28c3.75,4.31,4.63,8.69,2.65,14.08c-4.36,11.88-8.44,23.88-12.62,35.83
		c-1.4,4.01-4.44,4.66-7.22,1.44c-8.39-9.7-16.78-19.4-25.08-29.17c-4.54-5.34-10.04-7.4-17.01-6.01
		c-12.49,2.5-25.02,4.79-37.53,7.16c-3.13,0.59-5.87,1.7-7.46,4.76c-1.79,3.43-1.52,7.08,1,10.06c4.47,5.26,8.99,10.47,13.49,15.7
		c4.3,5,8.56,10.04,12.93,14.99c3.92,4.45,8.96,6.26,14.77,5.22c12.24-2.19,24.44-4.59,36.66-6.9c0.07-0.01,0.14-0.05,0.22-0.06
		c1.87-0.23,3.18-1.05,2.96-3.17c-0.17-1.62-1.65-2.3-3.89-1.89c-4.12,0.77-8.24,1.55-12.36,2.34c-7.88,1.51-15.74,3.04-23.62,4.52
		c-4.47,0.84-8.27-0.31-11.31-3.85c-8.34-9.74-16.74-19.43-25.09-29.17c-3.11-3.63-2.05-6.6,2.61-7.49
		c12.43-2.38,24.88-4.71,37.29-7.19c5.05-1.01,9.05,0.31,12.41,4.27c8.39,9.9,16.88,19.71,25.38,29.51
		c3.52,4.06,8.3,4.63,12.43,1.68c1.69-1.21,2.52-2.96,3.17-4.8c3.11-8.83,6.16-17.69,9.24-26.53c1.28-3.68,2.59-7.34,3.87-11.02
		C206.01,88.38,205.13,82.88,200.95,78.01z"/>
	
		<linearGradient id="SVGID_29_" gradientUnits="userSpaceOnUse" x1="-744.1399" y1="533.9265" x2="-732.7511" y2="533.9265" gradientTransform="matrix(-1 0 0 -1 -594.2566 593.714)">
		<stop  offset="0.0765" style="stop-color:#653575"/>
		<stop  offset="0.6917" style="stop-color:#AD2C45"/>
		<stop  offset="0.9745" style="stop-color:#C9262D"/>
	</linearGradient>
	<path class="st10" d="M146.23,63.43c-1.7,0.64-3.18,1.39-4.92,0.81c-2.69-0.88-3.63-3.32-2.04-5.68c1.43-2.12,3.55-3.17,6.04-3.4
		c1.84-0.17,3.51,0.32,4.27,2.18c0.78,1.92-0.06,3.52-1.45,4.82C147.54,62.72,146.77,63.07,146.23,63.43z"/>
	
		<linearGradient id="SVGID_30_" gradientUnits="userSpaceOnUse" x1="-709.7507" y1="506.2379" x2="-698.4025" y2="506.2379" gradientTransform="matrix(-1 0 0 -1 -594.2566 593.714)">
		<stop  offset="0.0765" style="stop-color:#653575"/>
		<stop  offset="0.6917" style="stop-color:#AD2C45"/>
		<stop  offset="0.9745" style="stop-color:#C9262D"/>
	</linearGradient>
	<path class="st11" d="M111.75,91.23c-3.14,1.54-6.26,0.99-7.32-1.28c-0.97-2.08,0.68-4.91,3.69-6.3c3.01-1.39,5.91-0.9,6.99,1.2
		C116.24,87.05,114.84,89.71,111.75,91.23z"/>
	
		<linearGradient id="SVGID_31_" gradientUnits="userSpaceOnUse" x1="-727.1733" y1="520.3322" x2="-715.8202" y2="520.3322" gradientTransform="matrix(-1 0 0 -1 -594.2566 593.714)">
		<stop  offset="0.0765" style="stop-color:#653575"/>
		<stop  offset="0.6917" style="stop-color:#AD2C45"/>
		<stop  offset="0.9745" style="stop-color:#C9262D"/>
	</linearGradient>
	<path class="st12" d="M125.51,69.6c2.9-1.44,5.91-0.97,7,1.08c1.13,2.14-0.11,4.69-3.08,6.32c-3.07,1.69-6.44,1.2-7.54-1.11
		C120.86,73.76,122.36,71.15,125.51,69.6z"/>
</g>
</svg>
